<svg width="75" height="75" fill="none" xmlns="http://www.w3.org/2000/svg"><mask id="a" style="mask-type:luminance" maskUnits="userSpaceOnUse" x="0" y="0" width="75" height="75"><path d="M0 0h75v75H0V0Z" fill="#fff"/></mask><g mask="url(#a)"><mask id="b" style="mask-type:luminance" maskUnits="userSpaceOnUse" x="0" y="0" width="75" height="76"><path d="M43.083 35.032H9.606c-1.297 0-2.236-1.188-1.884-2.381l9.193-31.28C17.149.564 17.92.005 18.799.005h33.477c1.297 0 2.236 1.183 1.884 2.376l-9.187 31.28c-.24.812-1.012 1.371-1.89 1.371Zm-21.74 23.61 4.73-16.105c.353-1.194-.587-2.376-1.89-2.376H6.979c-.878 0-1.65.559-1.884 1.365L.358 57.631c-.347 1.194.593 2.376 1.89 2.376h17.205c.878 0 1.65-.553 1.89-1.365Zm8.706-17.116-9.192 31.28c-.347 1.194.592 2.382 1.89 2.382h33.476c.878 0 1.65-.56 1.885-1.37L67.3 42.536c.347-1.194-.592-2.376-1.89-2.376H31.934c-.878 0-1.65.559-1.885 1.365Zm23.63-24.98L48.95 32.65c-.352 1.193.587 2.381 1.884 2.381h17.211c.878 0 1.65-.559 1.884-1.37l4.73-16.106c.353-1.193-.586-2.376-1.883-2.376H55.564c-.878 0-1.65.56-1.885 1.366Z" fill="#fff"/></mask><g mask="url(#b)"><path d="M.011.005V75H75V.005H.011Z" fill="url(#c)"/></g></g><defs><linearGradient id="c" x1="18.279" y1="-7.159" x2="53.753" y2="83.331" gradientUnits="userSpaceOnUse"><stop stop-color="#00FCA8"/><stop offset=".063" stop-color="#00FCA8"/><stop offset=".094" stop-color="#00FCA8"/><stop offset=".102" stop-color="#00FCA9"/><stop offset=".109" stop-color="#01FBAA"/><stop offset=".117" stop-color="#01FBAB"/><stop offset=".125" stop-color="#01FBAC"/><stop offset=".133" stop-color="#01FAAC"/><stop offset=".141" stop-color="#02FAAD"/><stop offset=".148" stop-color="#02F9AE"/><stop offset=".156" stop-color="#02F9AF"/><stop offset=".164" stop-color="#03F9B0"/><stop offset=".172" stop-color="#03F8B1"/><stop offset=".18" stop-color="#03F8B2"/><stop offset=".188" stop-color="#03F8B3"/><stop offset=".195" stop-color="#04F7B4"/><stop offset=".203" stop-color="#04F7B5"/><stop offset=".211" stop-color="#04F7B6"/><stop offset=".219" stop-color="#05F6B7"/><stop offset=".227" stop-color="#05F6B7"/><stop offset=".234" stop-color="#05F6B8"/><stop offset=".242" stop-color="#06F5B9"/><stop offset=".25" stop-color="#06F5BA"/><stop offset=".258" stop-color="#06F4BB"/><stop offset=".266" stop-color="#06F4BC"/><stop offset=".273" stop-color="#07F4BD"/><stop offset=".281" stop-color="#07F3BE"/><stop offset=".282" stop-color="#07F3BF"/><stop offset=".289" stop-color="#07F3BF"/><stop offset=".297" stop-color="#08F3C0"/><stop offset=".305" stop-color="#08F2C1"/><stop offset=".313" stop-color="#08F2C2"/><stop offset=".32" stop-color="#09F2C2"/><stop offset=".328" stop-color="#09F1C3"/><stop offset=".336" stop-color="#09F1C4"/><stop offset=".344" stop-color="#09F1C5"/><stop offset=".352" stop-color="#0AF0C6"/><stop offset=".359" stop-color="#0AF0C7"/><stop offset=".367" stop-color="#0AF0C8"/><stop offset=".375" stop-color="#0BEFC9"/><stop offset=".383" stop-color="#0BEFCA"/><stop offset=".391" stop-color="#0BEECB"/><stop offset=".398" stop-color="#0BEECC"/><stop offset=".406" stop-color="#0CEECC"/><stop offset=".414" stop-color="#0CEDCD"/><stop offset=".422" stop-color="#0CEDCE"/><stop offset=".43" stop-color="#0DEDCF"/><stop offset=".438" stop-color="#0DECD0"/><stop offset=".445" stop-color="#0DECD1"/><stop offset=".453" stop-color="#0EECD2"/><stop offset=".461" stop-color="#0EEBD3"/><stop offset=".469" stop-color="#0EEBD4"/><stop offset=".477" stop-color="#0EEBD5"/><stop offset=".484" stop-color="#0FEAD6"/><stop offset=".492" stop-color="#0FEAD7"/><stop offset=".5" stop-color="#0FE9D7"/><stop offset=".508" stop-color="#10E9D8"/><stop offset=".516" stop-color="#10E9D9"/><stop offset=".523" stop-color="#10E8DA"/><stop offset=".531" stop-color="#10E8DB"/><stop offset=".539" stop-color="#11E8DC"/><stop offset=".547" stop-color="#11E7DD"/><stop offset=".555" stop-color="#11E7DE"/><stop offset=".563" stop-color="#12E7DF"/><stop offset=".57" stop-color="#12E6E0"/><stop offset=".578" stop-color="#12E6E1"/><stop offset=".586" stop-color="#13E6E2"/><stop offset=".594" stop-color="#13E5E2"/><stop offset=".602" stop-color="#13E5E3"/><stop offset=".609" stop-color="#13E4E4"/><stop offset=".617" stop-color="#14E4E5"/><stop offset=".625" stop-color="#14E4E6"/><stop offset=".633" stop-color="#14E3E7"/><stop offset=".641" stop-color="#15E3E8"/><stop offset=".648" stop-color="#15E3E9"/><stop offset=".656" stop-color="#15E2EA"/><stop offset=".664" stop-color="#15E2EB"/><stop offset=".672" stop-color="#16E2EC"/><stop offset=".68" stop-color="#16E1ED"/><stop offset=".688" stop-color="#16E1ED"/><stop offset=".695" stop-color="#17E1EE"/><stop offset=".703" stop-color="#17E0EF"/><stop offset=".711" stop-color="#17E0F0"/><stop offset=".718" stop-color="#18DFF1"/><stop offset=".719" stop-color="#18DFF2"/><stop offset=".727" stop-color="#18DFF2"/><stop offset=".734" stop-color="#18DFF3"/><stop offset=".742" stop-color="#18DEF4"/><stop offset=".75" stop-color="#19DEF5"/><stop offset=".758" stop-color="#19DEF6"/><stop offset=".766" stop-color="#19DDF7"/><stop offset=".773" stop-color="#1ADDF7"/><stop offset=".781" stop-color="#1ADDF8"/><stop offset=".789" stop-color="#1ADCF9"/><stop offset=".797" stop-color="#1BDCFA"/><stop offset=".805" stop-color="#1BDCFB"/><stop offset=".813" stop-color="#1BDBFC"/><stop offset=".82" stop-color="#1BDBFD"/><stop offset=".828" stop-color="#1CDAFE"/><stop offset=".844" stop-color="#1CDAFF"/><stop offset=".875" stop-color="#1CDAFF"/><stop offset="1" stop-color="#1CDAFF"/></linearGradient></defs></svg>