<svg width="228" height="73" xmlns="http://www.w3.org/2000/svg"><path d="m92.229 52.158-4.026-4.356c-.99.286-2.079.429-3.267.429-2.134 0-4.103-.495-5.907-1.485a11.441 11.441 0 0 1-4.257-4.191c-1.034-1.804-1.551-3.828-1.551-6.072s.517-4.257 1.551-6.039c1.056-1.782 2.475-3.168 4.257-4.158 1.804-1.012 3.773-1.518 5.907-1.518 2.156 0 4.125.506 5.907 1.518a10.893 10.893 0 0 1 4.257 4.158c1.034 1.782 1.551 3.795 1.551 6.039 0 2.112-.462 4.026-1.386 5.742a10.854 10.854 0 0 1-3.762 4.092l5.511 5.841h-4.785ZM77.082 36.483c0 1.694.33 3.19.99 4.488.682 1.276 1.617 2.266 2.805 2.97 1.188.682 2.541 1.023 4.059 1.023 1.518 0 2.871-.341 4.059-1.023 1.188-.704 2.112-1.694 2.772-2.97.682-1.298 1.023-2.794 1.023-4.488 0-1.694-.341-3.179-1.023-4.455-.66-1.276-1.584-2.255-2.772-2.937-1.188-.682-2.541-1.023-4.059-1.023-1.518 0-2.871.341-4.059 1.023-1.188.682-2.123 1.661-2.805 2.937-.66 1.276-.99 2.761-.99 4.455Zm39.835-6.666V48h-3.762v-2.145c-.594.748-1.375 1.342-2.343 1.782a7.427 7.427 0 0 1-3.036.627c-1.43 0-2.717-.297-3.861-.891-1.122-.594-2.013-1.474-2.673-2.64-.638-1.166-.957-2.574-.957-4.224V29.817h3.729v10.131c0 1.628.407 2.882 1.221 3.762.814.858 1.925 1.287 3.333 1.287 1.408 0 2.519-.429 3.333-1.287.836-.88 1.254-2.134 1.254-3.762V29.817h3.762Zm6.877-2.409c-.682 0-1.254-.231-1.716-.693-.462-.462-.693-1.034-.693-1.716 0-.682.231-1.254.693-1.716.462-.462 1.034-.693 1.716-.693.66 0 1.221.231 1.683.693.462.462.693 1.034.693 1.716 0 .682-.231 1.254-.693 1.716a2.291 2.291 0 0 1-1.683.693Zm1.848 2.409V48h-3.762V29.817h3.762Zm3.685 9.075c0-1.87.374-3.509 1.122-4.917.77-1.43 1.826-2.53 3.168-3.3s2.882-1.155 4.62-1.155c2.2 0 4.015.528 5.445 1.584 1.452 1.034 2.431 2.519 2.937 4.455h-4.059c-.33-.902-.858-1.606-1.584-2.112-.726-.506-1.639-.759-2.739-.759-1.54 0-2.772.55-3.696 1.65-.902 1.078-1.353 2.596-1.353 4.554 0 1.958.451 3.487 1.353 4.587.924 1.1 2.156 1.65 3.696 1.65 2.178 0 3.619-.957 4.323-2.871h4.059c-.528 1.848-1.518 3.322-2.97 4.422-1.452 1.078-3.256 1.617-5.412 1.617-1.738 0-3.278-.385-4.62-1.155-1.342-.792-2.398-1.892-3.168-3.3-.748-1.43-1.122-3.08-1.122-4.95Zm28.236.033L165.945 48h-5.082l-6.732-7.821V48h-3.762V23.58h3.762v14.19l6.6-7.953h5.214l-8.382 9.108Z" fill="#fff"/><path d="M184.679 31.896a6.925 6.925 0 0 1-.825 3.3c-.55 1.034-1.43 1.881-2.64 2.541-1.21.638-2.761.957-4.653.957h-4.158V48h-3.762V25.065h7.92c1.76 0 3.245.308 4.455.924 1.232.594 2.145 1.408 2.739 2.442.616 1.034.924 2.189.924 3.465Zm-8.118 3.729c1.43 0 2.497-.319 3.201-.957.704-.66 1.056-1.584 1.056-2.772 0-2.508-1.419-3.762-4.257-3.762h-4.158v7.491h4.158Zm10.452 3.201c0-1.826.374-3.443 1.122-4.851.77-1.408 1.804-2.497 3.102-3.267 1.32-.792 2.772-1.188 4.356-1.188 1.43 0 2.673.286 3.729.858 1.078.55 1.936 1.243 2.574 2.079v-2.64h3.795V48h-3.795v-2.706c-.638.858-1.507 1.573-2.607 2.145-1.1.572-2.354.858-3.762.858-1.562 0-2.992-.396-4.29-1.188-1.298-.814-2.332-1.936-3.102-3.366-.748-1.452-1.122-3.091-1.122-4.917Zm14.883.066c0-1.254-.264-2.343-.792-3.267-.506-.924-1.177-1.628-2.013-2.112a5.31 5.31 0 0 0-2.706-.726 5.31 5.31 0 0 0-2.706.726c-.836.462-1.518 1.155-2.046 2.079-.506.902-.759 1.98-.759 3.234s.253 2.354.759 3.3c.528.946 1.21 1.672 2.046 2.178.858.484 1.76.726 2.706.726a5.31 5.31 0 0 0 2.706-.726c.836-.484 1.507-1.188 2.013-2.112.528-.946.792-2.046.792-3.3ZM227 29.817l-11.154 26.73h-3.894l3.696-8.844-7.161-17.886h4.191l5.115 13.86 5.313-13.86H227Z" fill="#5CE1E6"/><mask id="a" style="mask-type:luminance" maskUnits="userSpaceOnUse" x="0" y="0" width="70" height="73"><path d="M0 0h69.86v72.667H0V0Z" fill="#fff"/></mask><g mask="url(#a)"><mask id="b" style="mask-type:luminance" maskUnits="userSpaceOnUse" x="0" y="0" width="70" height="73"><path d="M40.13 33.943H8.948a1.817 1.817 0 0 1-1.755-2.308l8.562-30.307A1.82 1.82 0 0 1 17.51.005h31.183c1.208 0 2.083 1.146 1.755 2.302L41.89 32.615a1.83 1.83 0 0 1-1.76 1.328ZM19.88 56.818l4.406-15.604c.329-1.157-.546-2.303-1.76-2.303H6.5a1.82 1.82 0 0 0-1.755 1.323L.333 55.84a1.819 1.819 0 0 0 1.76 2.302H18.12c.817 0 1.536-.537 1.76-1.323Zm8.11-16.584-8.563 30.308a1.823 1.823 0 0 0 1.76 2.307H52.37c.818 0 1.536-.542 1.755-1.328l8.563-30.307a1.819 1.819 0 0 0-1.76-2.303H29.744a1.82 1.82 0 0 0-1.755 1.323ZM50 16.031l-4.406 15.604a1.817 1.817 0 0 0 1.755 2.308H63.38c.818 0 1.537-.542 1.755-1.328l4.407-15.605c.328-1.156-.547-2.302-1.756-2.302h-16.03A1.82 1.82 0 0 0 50 16.031Z" fill="#fff"/></mask><g mask="url(#b)"><path d="M.01.005v72.662h69.85V.005H.01Z" fill="url(#c)"/></g></g><defs><linearGradient id="c" x1="17.026" y1="-6.936" x2="52.392" y2="79.791" gradientUnits="userSpaceOnUse"><stop stop-color="#00FCA8"/><stop offset=".063" stop-color="#00FCA8"/><stop offset=".094" stop-color="#00FCA8"/><stop offset=".102" stop-color="#00FCA9"/><stop offset=".109" stop-color="#01FBAA"/><stop offset=".117" stop-color="#01FBAB"/><stop offset=".125" stop-color="#01FBAC"/><stop offset=".133" stop-color="#01FAAC"/><stop offset=".141" stop-color="#02FAAD"/><stop offset=".148" stop-color="#02F9AE"/><stop offset=".156" stop-color="#02F9AF"/><stop offset=".164" stop-color="#03F9B0"/><stop offset=".172" stop-color="#03F8B1"/><stop offset=".18" stop-color="#03F8B2"/><stop offset=".188" stop-color="#03F8B3"/><stop offset=".195" stop-color="#04F7B4"/><stop offset=".203" stop-color="#04F7B5"/><stop offset=".211" stop-color="#04F7B6"/><stop offset=".219" stop-color="#05F6B7"/><stop offset=".227" stop-color="#05F6B7"/><stop offset=".234" stop-color="#05F6B8"/><stop offset=".242" stop-color="#06F5B9"/><stop offset=".25" stop-color="#06F5BA"/><stop offset=".258" stop-color="#06F4BB"/><stop offset=".266" stop-color="#06F4BC"/><stop offset=".273" stop-color="#07F4BD"/><stop offset=".281" stop-color="#07F3BE"/><stop offset=".282" stop-color="#07F3BF"/><stop offset=".289" stop-color="#07F3BF"/><stop offset=".297" stop-color="#08F3C0"/><stop offset=".305" stop-color="#08F2C1"/><stop offset=".313" stop-color="#08F2C2"/><stop offset=".32" stop-color="#09F2C2"/><stop offset=".328" stop-color="#09F1C3"/><stop offset=".336" stop-color="#09F1C4"/><stop offset=".344" stop-color="#09F1C5"/><stop offset=".352" stop-color="#0AF0C6"/><stop offset=".359" stop-color="#0AF0C7"/><stop offset=".367" stop-color="#0AF0C8"/><stop offset=".375" stop-color="#0BEFC9"/><stop offset=".383" stop-color="#0BEFCA"/><stop offset=".391" stop-color="#0BEECB"/><stop offset=".398" stop-color="#0BEECC"/><stop offset=".406" stop-color="#0CEECC"/><stop offset=".414" stop-color="#0CEDCD"/><stop offset=".422" stop-color="#0CEDCE"/><stop offset=".43" stop-color="#0DEDCF"/><stop offset=".438" stop-color="#0DECD0"/><stop offset=".445" stop-color="#0DECD1"/><stop offset=".453" stop-color="#0EECD2"/><stop offset=".461" stop-color="#0EEBD3"/><stop offset=".469" stop-color="#0EEBD4"/><stop offset=".477" stop-color="#0EEBD5"/><stop offset=".484" stop-color="#0FEAD6"/><stop offset=".492" stop-color="#0FEAD7"/><stop offset=".5" stop-color="#0FE9D7"/><stop offset=".508" stop-color="#10E9D8"/><stop offset=".516" stop-color="#10E9D9"/><stop offset=".523" stop-color="#10E8DA"/><stop offset=".531" stop-color="#10E8DB"/><stop offset=".539" stop-color="#11E8DC"/><stop offset=".547" stop-color="#11E7DD"/><stop offset=".555" stop-color="#11E7DE"/><stop offset=".563" stop-color="#12E7DF"/><stop offset=".57" stop-color="#12E6E0"/><stop offset=".578" stop-color="#12E6E1"/><stop offset=".586" stop-color="#13E6E2"/><stop offset=".594" stop-color="#13E5E2"/><stop offset=".602" stop-color="#13E5E3"/><stop offset=".609" stop-color="#13E4E4"/><stop offset=".617" stop-color="#14E4E5"/><stop offset=".625" stop-color="#14E4E6"/><stop offset=".633" stop-color="#14E3E7"/><stop offset=".641" stop-color="#15E3E8"/><stop offset=".648" stop-color="#15E3E9"/><stop offset=".656" stop-color="#15E2EA"/><stop offset=".664" stop-color="#15E2EB"/><stop offset=".672" stop-color="#16E2EC"/><stop offset=".68" stop-color="#16E1ED"/><stop offset=".688" stop-color="#16E1ED"/><stop offset=".695" stop-color="#17E1EE"/><stop offset=".703" stop-color="#17E0EF"/><stop offset=".711" stop-color="#17E0F0"/><stop offset=".718" stop-color="#18DFF1"/><stop offset=".719" stop-color="#18DFF2"/><stop offset=".727" stop-color="#18DFF2"/><stop offset=".734" stop-color="#18DFF3"/><stop offset=".742" stop-color="#18DEF4"/><stop offset=".75" stop-color="#19DEF5"/><stop offset=".758" stop-color="#19DEF6"/><stop offset=".766" stop-color="#19DDF7"/><stop offset=".773" stop-color="#1ADDF7"/><stop offset=".781" stop-color="#1ADDF8"/><stop offset=".789" stop-color="#1ADCF9"/><stop offset=".797" stop-color="#1BDCFA"/><stop offset=".805" stop-color="#1BDCFB"/><stop offset=".813" stop-color="#1BDBFC"/><stop offset=".82" stop-color="#1BDBFD"/><stop offset=".828" stop-color="#1CDAFE"/><stop offset=".844" stop-color="#1CDAFF"/><stop offset=".875" stop-color="#1CDAFF"/><stop offset="1" stop-color="#1CDAFF"/></linearGradient></defs></svg>